# xmcd
#
# Track frame offsets: 
#        150
#        23924
#        45510
#        72641
#        93755
#        125563
#        146731
#        167907
#        192750
#        209141
#        230151
#        257074
#
# Disc length: 3710 seconds
#
# Revision: 2
# Processed by: cddbd v1.5.2PL0 Copyright (c) Steve Scherf et al.
# Submitted via: ExactAudioCopy v1.0b3
#
DISCID=b70e7c0c
DTITLE=Iiro Rantala - My working class hero
DYEAR=2015
DGENRE=Jazz
TTITLE0=Norwegian wood
TTITLE1=Working class hero
TTITLE2=Just like starting over
TTITLE3=Because
TTITLE4=Woman
TTITLE5=Imagine
TTITLE6=Help
TTITLE7=Watching the wheels
TTITLE8=Oh, my love
TTITLE9=In my life
TTITLE10=Happy Xmas, war is over
TTITLE11=All you need is love
EXTD=YEAR: 2015
EXTT0=
EXTT1=
EXTT2=
EXTT3=
EXTT4=
EXTT5=
EXTT6=
EXTT7=
EXTT8=
EXTT9=
EXTT10=
EXTT11=
PLAYORDER=
